<svg xmlns="http://www.w3.org/2000/svg" xmlns:xlink="http://www.w3.org/1999/xlink" width="500" zoomAndPan="magnify" viewBox="0 0 375 374.999991" height="500" preserveAspectRatio="xMidYMid meet" version="1.0"><defs><clipPath id="d79c8b0452"><path d="M 0 19 L 375 19 L 375 374 L 0 374 Z M 0 19 " clip-rule="nonzero"/></clipPath><clipPath id="9d07fa1799"><path d="M 200.289062 222.804688 L 200.289062 63.457031 C 200.289062 57.277344 206.191406 52.808594 212.144531 54.476562 L 368.167969 98.222656 C 372.199219 99.351562 374.980469 103.023438 374.980469 107.207031 L 374.980469 266.550781 C 374.980469 272.730469 369.078125 277.203125 363.125 275.535156 L 207.101562 231.789062 C 203.070312 230.660156 200.289062 226.988281 200.289062 222.804688 Z M 82.515625 119.308594 L 162.851562 141.832031 C 168.804688 143.5 174.710938 139.03125 174.710938 132.851562 L 174.710938 50.9375 C 174.710938 46.753906 171.925781 43.085938 167.894531 41.953125 L 87.5625 19.429688 C 81.605469 17.761719 75.703125 22.234375 75.703125 28.414062 L 75.703125 110.324219 C 75.703125 114.507812 78.488281 118.179688 82.515625 119.308594 Z M 167.894531 160.757812 L 11.871094 117.011719 C 5.917969 115.34375 0.015625 119.8125 0.015625 125.992188 L 0.015625 285.339844 C 0.015625 289.523438 2.800781 293.195312 6.828125 294.324219 L 162.851562 338.070312 C 168.804688 339.738281 174.710938 335.269531 174.710938 329.085938 L 174.710938 169.742188 C 174.710938 165.558594 171.925781 161.886719 167.894531 160.757812 Z M 292.480469 273.238281 L 212.144531 250.714844 C 206.191406 249.042969 200.289062 253.515625 200.289062 259.695312 L 200.289062 341.609375 C 200.289062 345.789062 203.070312 349.460938 207.101562 350.589844 L 287.4375 373.117188 C 293.390625 374.785156 299.292969 370.3125 299.292969 364.132812 L 299.292969 282.222656 C 299.292969 278.039062 296.507812 274.367188 292.480469 273.238281 Z M 292.480469 273.238281 " clip-rule="nonzero"/></clipPath></defs><g clip-path="url(#d79c8b0452)"><g clip-path="url(#9d07fa1799)"><path fill="#000000" d="M 374.980469 17.761719 L 0.015625 17.761719 L 0.015625 374.730469 L 374.980469 374.730469 Z M 374.980469 17.761719 " fill-opacity="1" fill-rule="nonzero"/></g></g></svg>